<svg class="roc" enable-background="new 0 0 117 12.3" height="175" viewBox="0 0 117 12.3" width="250" xmlns="http://www.w3.org/2000/svg"><path class="R" d="m0 12.1v-11.9h3.9c1.2 0 2.2.1 3 .7 1 .8 1.6 1.9 1.6 3.3 0 1.9-1 3.3-2.7 3.8l2.9 4.1h-3.6l-2.2-3.8v3.8zm3.4-6.4c1.4 0 2.1-.3 2.1-1.4 0-.9-.6-1.3-1.9-1.3h-.7v2.8z"/><path class="O" d="m14.8 1.8c1.2-1.1 2.7-1.8 4.3-1.8s3.1.7 4.2 1.8c1.2 1.2 1.9 2.7 1.9 4.3s-.6 3.2-1.7 4.3c-1.1 1.2-2.7 1.9-4.3 1.9-1.8 0-3.2-.7-4.4-1.9-1.1-1.2-1.7-2.7-1.7-4.4-.1-1.6.5-3.1 1.7-4.2m4.2 7.5c1.7 0 3.1-1.3 3.1-3.3 0-1.8-1.3-3.1-3-3.1-1.8 0-3.1 1.3-3.1 3.1-.1 1.9 1.5 3.3 3 3.3z"/><path class="C" d="m35.5 12.3c-1.8 0-3.2-.7-4.4-1.9-1.1-1.2-1.7-2.7-1.7-4.4 0-1.6.7-3.1 1.8-4.2 1.2-1.1 2.6-1.8 4.3-1.8 2.8 0 5.1 1.8 5.9 4.8h-3.1c-.7-1.1-1.6-1.8-2.8-1.8-1.8 0-3.1 1.3-3.1 3.1 0 1.9 1.4 3.3 3.1 3.3 1.1 0 2.1-.6 2.8-1.7h3.1c-.8 2.9-3.1 4.6-5.9 4.6"/><path class="t" d="m47.8 12.1v-10.2h-2.2v-1.7h6.1v1.7h-2.2v10.2z"/><path class="i" d="m55.9.2h1.7v11.9h-1.7z"/><path class="l" d="m61.9 12.1v-11.9h1.7v10.3h3.9v1.6z"/><path class="b" d="m77.3 3.4c0 1-.4 1.8-1.2 2.2 1.1.4 1.9 1.5 1.9 2.9 0 1.1-.4 2.1-1.2 2.8-.9.8-1.9.9-3.1.9h-2.8v-12h2.6c2.5 0 3.8 1.1 3.8 3.2m-3.3 7.1c1.6 0 2.3-.6 2.3-1.8 0-1.3-.8-2-2.3-2h-1.3v3.9h1.3zm-.8-5.3c1.7 0 2.4-.4 2.4-1.8 0-1.1-.7-1.7-2.1-1.7h-.9v3.3h.6z"/><path class="u" d="m83.9.2v7.6c0 2 .4 2.9 2.1 2.9 1.6 0 2-.9 2-2.9v-7.6h1.7v7.6c0 1.2-.1 2.2-.6 3-.7 1.1-1.8 1.6-3.1 1.6-1.4 0-2.6-.4-3.2-1.6-.7-.9-.7-1.9-.7-3v-7.6z"/><path class="r" d="m93.9 12.1v-11.9h3.4c2.9 0 4.3 1.3 4.3 3.9 0 1.9-1.3 3.3-3.3 3.4l3.3 4.6h-2.1l-3.9-5.6v5.5h-1.8zm2.6-5.8c2.3 0 3.6-.8 3.6-2.3s-1-2.2-3.1-2.2h-1.3v4.6z"/><path class="g" d="m117 6.1c-.2 3.8-2.7 6.2-6 6.2-1.8 0-3.3-.7-4.4-2-1-1.1-1.6-2.6-1.6-4.2s.7-3.2 1.9-4.3c1.1-1.1 2.6-1.7 4.3-1.7 2.4 0 4.3 1.2 5.2 3.2h-2.1c-.8-1-1.9-1.6-3.2-1.6-1.1 0-2.1.4-2.9 1.2-.9.9-1.3 2-1.3 3.1 0 1.2.4 2.3 1.2 3.2s1.9 1.3 3 1.3c1.8 0 3.2-1 4.1-2.9h-5.3v-1.5z"/>
   </svg>