<svg class="mindlabs" 
    viewBox="0 0 450 200"  width="125px" height="100px" >
 
   <polyline class="st0" points="81.2,60.4 156.5,16.3 241.2,6.9 278.6,60.8 214.6,166.8 278,239.5 338.1,167.3 "/>
   <g>
     <path class="st1" d="M56.1,74.1c-1.8,0-3.2,0.9-4.7,2.9l-24.6,32.2c-0.8,1-1.2,2.2-1.2,3.3c0,1.3,0.7,2.6,1.8,3.5l0.1,0.1
       c0.9,0.6,1.8,0.9,2.7,0.9c1.5,0,3-0.8,4-2.1l17.1-22.5v37.1c0,2.7,2,4.7,4.6,4.7c2.7,0,4.8-2,4.8-4.7V79.7
       C60.8,76.3,59,74.1,56.1,74.1z"/>
     <path class="st1" d="M25.5,98.2L9.3,76.9c-1.5-2-2.9-2.9-4.7-2.9c-2.8,0-4.6,2.2-4.6,5.6v49.8c0,2.7,2,4.7,4.7,4.7
       c2.7,0,4.7-2,4.7-4.7v-37l8.6,11.3c0.9,1.3,2.4,2,3.9,2c0.9,0,1.9-0.3,2.7-0.9l0.1-0.1c1.1-0.9,1.8-2.2,1.8-3.6
       C26.6,100,26,99,25.5,98.2z"/>
     <path class="st1" d="M81.2,74.1c-2.7,0-4.7,2-4.7,4.7v50.7c0,2.7,2,4.7,4.7,4.7c2.7,0,4.7-2,4.7-4.7V78.8
       C85.9,76.1,83.8,74.1,81.2,74.1z"/>
     <path class="st1" d="M146.4,74.1c-2.6,0-4.7,2.1-4.7,4.7v38.1l-30.4-40.3c-1.2-1.7-3-2.5-5-2.5c-2.3,0-4.7,1.7-4.7,5.5v49.9
       c0,2.6,2.1,4.7,4.7,4.7s4.7-2.1,4.7-4.7V91.2l30.4,40.2l0,0c1.5,1.9,3,2.8,4.9,2.8c2.8,0,4.8-2.2,4.8-5.3V78.8
       C151.1,76.2,149,74.1,146.4,74.1z"/>
     <path class="st1" d="M186.9,74.4h-15.5c-2.6,0-4.7,2.1-4.7,4.7v50c0,2.6,2.1,4.7,4.7,4.7h14.8c20.1,0,33.2-11.5,33.2-29.3
       C219.5,85.7,207.3,74.4,186.9,74.4z M209.7,104.6c0,12.8-8.5,20.2-23.4,20.2h-10.1V83.5h10.7C201.8,83.5,209.7,90.8,209.7,104.6z"
       />
   </g>
   <g>
     <path class="st2" d="M231.7,129.2V78.8c0-2.1,1.6-3.7,3.7-3.7c2.1,0,3.7,1.6,3.7,3.7v47h27c2.1,0,3.7,1.5,3.7,3.5
       c0,2-1.6,3.5-3.7,3.5h-30.8C233.3,132.9,231.7,131.3,231.7,129.2z"/>
     <path class="st2" d="M323.3,130.8l-5.6-11.7h-30.3l-5.7,11.9c-0.7,1.3-1.9,2.1-3.4,2.1c-0.6,0-1.2-0.2-1.9-0.4
       c-1.1-0.5-1.8-1.6-1.8-2.8c0-0.5,0.1-1.1,0.4-1.9l24-50.5c0.9-1.8,1.9-2.5,3.4-2.5c1.4,0,2.7,0.7,3.4,2.4l23.9,49.9
       c0.4,0.8,0.6,1.5,0.6,2.3c0,1.3-0.6,2.4-1.9,3c-0.6,0.4-1.3,0.5-2,0.5C325.3,133.2,324,132.3,323.3,130.8z M302.5,87.2l-11.9,25.2
       h23.9L302.5,87.2z"/>
   </g>
   <g>
     <path class="st2" d="M338.6,129.2v-50c0-2,1.7-3.7,3.7-3.7h21.8c11.9,0,17.8,7.2,17.8,15.5c0,5.2-2.2,9.3-6.4,11.9
       c6.4,2.1,9.7,6.5,9.7,13.5c0,10.7-7,16.5-20.1,16.5h-22.9C340.3,132.9,338.6,131.2,338.6,129.2z M346,82.3v17.9h17.7
       c6.8,0,10.5-3.1,10.5-9c0-5.8-3.7-8.9-10.5-8.9H346z M346,101.3h0.2l-0.2-0.2V101.3z M346,106.2l0.2-0.2H346V106.2z M346,107.2
       v18.7h19.1c8.4,0,12.5-2.9,12.5-9.4c0-6.5-4.1-9.4-12.5-9.4H346z"/>
     <path class="st2" d="M415.4,81.8c-6.5,0-11.9,2.8-11.9,8.7c0,5.6,3.9,7.7,13.9,9.9c13.4,3,20.2,8,20.2,17.1
       c0,10.6-8.7,16.2-20.7,16.2c-8.2,0-15.9-2.6-20.6-6.5c-1.1-1-1.7-2.1-1.7-3.4c0-0.7,0.2-1.5,0.7-2.1c0.7-0.9,1.7-1.3,2.7-1.3
       c1,0,2,0.4,2.8,1c4.9,3.4,9.6,5.3,16,5.3c7.3,0,13.1-2.7,13.1-9c0-6.4-7.2-8.4-16.3-10.6c-12.1-3-17.8-6.9-17.8-16.4
       c0-9.5,9.3-15.7,19.5-15.7c8.1,0,14,2.3,17.8,5.3c1.1,0.9,1.7,1.9,1.7,3.1c0,0.7-0.2,1.4-0.6,2.1c-0.7,1-1.8,1.4-2.9,1.4
       c-0.9,0-1.7-0.3-2.4-0.7C424.4,83.1,420.3,81.8,415.4,81.8z"/>
   </g>
   <path class="st2" d="M156.5,24c3.8,0,6.9-3.1,6.9-6.9c0-3.8-3.1-6.9-6.9-6.9s-6.9,3.1-6.9,6.9C149.5,20.9,152.6,24,156.5,24
     L156.5,24z"/>
   <path class="st2" d="M81.2,67.8c3.8,0,6.9-3.1,6.9-6.9s-3.1-6.9-6.9-6.9c-3.8,0-6.9,3.1-6.9,6.9S77.3,67.8,81.2,67.8L81.2,67.8z"/>
   <path class="st2" d="M277.4,67.8c3.8,0,6.9-3.1,6.9-6.9c0-3.8-3.1-6.9-6.9-6.9s-6.9,3.1-6.9,6.9C270.5,64.7,273.6,67.8,277.4,67.8
     L277.4,67.8z"/>
   <path class="st2" d="M215.6,174.2c3.8,0,6.9-3.1,6.9-6.9c0-3.8-3.1-6.9-6.9-6.9c-3.8,0-6.9,3.1-6.9,6.9
     C208.6,171.1,211.8,174.2,215.6,174.2L215.6,174.2z"/>
   <path class="st2" d="M278.4,245c3.8,0,6.9-3.1,6.9-6.9c0-3.8-3.1-7-6.9-7c-3.8,0-6.9,3.1-6.9,7C271.4,241.9,274.5,245,278.4,245
     L278.4,245z"/>
   <path class="st2" d="M338.1,174.2c3.8,0,6.9-3.1,6.9-6.9c0-3.8-3.1-6.9-6.9-6.9c-3.8,0-6.9,3.1-6.9,6.9
     C331.2,171.1,334.3,174.2,338.1,174.2L338.1,174.2z"/>
   <path class="st2" d="M241.2,13.9c3.8,0,6.9-3.1,6.9-6.9c0-3.8-3.1-6.9-6.9-6.9c-3.8,0-6.9,3.1-6.9,6.9
     C234.2,10.8,237.3,13.9,241.2,13.9L241.2,13.9z"/></svg>