<?xml version="1.0" encoding="utf-8"?>
<!-- Generator: Adobe Illustrator 26.0.2, SVG Export Plug-In . SVG Version: 6.00 Build 0)  -->
<svg version="1.2" baseProfile="tiny" id="PIT_Logo" 
	 x="0px" y="0px" viewBox="0 0 210 100"  height="210px" width="100px" overflow="visible" xml:space="preserve">
<g>
	<path class="P1"  d="M-0.1,99.8V0.5h33c10.5,0,18.4,0.7,25.2,5.4c8.8,6.1,13.4,15.5,13.4,27.9c0,12.9-5.9,23.5-15.8,29.5c-6.3,3.8-14.1,4.5-24.5,4.5h-7v32H-0.1z M28.9,46.3c12,0,17.9-3.1,17.9-12c0-8.2-5.2-11.6-15.9-11.6h-6.4v23.6H28.9z"/>
	<path  d="M140.7,99.8V23.5h-18.4V0.5h61.6v23.1H165v76.3H140.7z"/>
	<path d="M93.6,37c-0.9,0-1.2,0.5-1.2,1.6v0.7H95v-0.4C95,37.6,94.6,37,93.6,37z"/>
	<path d="M95.6,78.1c-1.3,0-2.4,1.1-2.4,2.3c0,1.4,1.1,2.4,2.4,2.4c1.4,0,2.5-1.1,2.5-2.4C98.2,79.2,97.1,78.1,95.6,78.1z"/>
	<path  d="M97.6,36.5c-1,0-1.6,0.6-1.6,1.8v1h3v-1C99,37.1,98.6,36.5,97.6,36.5z"/>
	<path  d="M94.2,90.8c-0.8,0-1.1,0.5-1.1,1.5v0.6h2.2v-0.4C95.3,91.4,95.1,90.8,94.2,90.8z"/>
	<path  d="M94.1,18.2c-1.2,0-1.7,0.8-1.7,2.4v1h3.5v-0.7C95.9,19.1,95.3,18.2,94.1,18.2z"/>
	<path  d="M83.5,0.5v99.3h24.3V0.5H83.5z M100.3,91.2l-2.9,1.7h2.9v2.2h-9.1v-3c0-1,0.1-1.7,0.5-2.3
			c0.6-0.8,1.4-1.2,2.6-1.2c1.5,0,2.6,0.8,2.9,2.1l3.1-2.2V91.2z M99,83.9c-0.9,0.9-2,1.3-3.4,1.3c-1.3,0-2.4-0.5-3.3-1.4
			c-0.9-0.9-1.3-2-1.3-3.3c0-1.2,0.5-2.4,1.3-3.3c0.9-0.9,2.1-1.4,3.3-1.4c1.3,0,2.5,0.5,3.4,1.3c0.9,0.9,1.4,2.1,1.4,3.4
			C100.4,81.8,99.9,83,99,83.9z M99,71.3c-0.9,0.9-2,1.3-3.4,1.3c-1.3,0-2.4-0.5-3.3-1.4c-0.9-0.9-1.3-2-1.3-3.3
			c0-2.1,1.4-4,3.6-4.5v2.4c-0.9,0.5-1.4,1.2-1.4,2.1c0,1.4,1.1,2.4,2.4,2.4c1.5,0,2.6-1.1,2.6-2.4c0-0.9-0.5-1.6-1.3-2.1v-2.4
			c2.2,0.6,3.6,2.3,3.6,4.5C100.4,69.2,99.9,70.4,99,71.3z M99,46.2v-3h1.3v4.3h-9.1v-1.3H99z M91.1,40.6v-2c0-2,0.9-3,2.5-3
			c0.7,0,1.3,0.3,1.7,1c0.3-0.9,1.1-1.5,2.1-1.5c0.9,0,1.7,0.3,2.1,0.9c0.6,0.7,0.7,1.4,0.7,2.4v2.1H91.1z M100.3,50.8v1.3h-9.1
			v-1.3H100.3z M92.4,55.3v1.7h7.9v1.3h-7.9v1.7h-1.2v-4.7H92.4z M99.2,31.5C98.5,32,97.8,32,96.9,32h-5.8v-1.3h5.8
			c1.5,0,2.2-0.3,2.2-1.6c0-1.2-0.7-1.6-2.2-1.6h-5.8v-1.3h5.8c0.9,0,1.7,0.1,2.3,0.4c0.8,0.6,1.2,1.3,1.2,2.4
			C100.4,30.1,100.1,30.9,99.2,31.5z M100.3,21.6v1.3h-9.1v-2.6c0-2.2,1.1-3.4,3-3.4c1.5,0,2.6,1,2.7,2.6l3.5-2.6v1.7l-4.2,3H100.3z
			 M98.9,13.3c-0.9,0.8-2,1.2-3.2,1.2c-1.3,0-2.4-0.5-3.4-1.4c-0.9-0.9-1.3-2-1.3-3.3c0-1.9,0.9-3.3,2.5-4v1.6
			c-0.8,0.6-1.2,1.5-1.2,2.5c0,0.9,0.3,1.7,0.9,2.3c0.7,0.6,1.6,1,2.4,1c1,0,1.8-0.3,2.5-0.9c0.7-0.6,1-1.5,1-2.3
			c0-1.4-0.7-2.5-2.2-3.1v4.1h-1.3V5.2c2.9,0.1,4.8,2.1,4.8,4.7C100.4,11.2,99.9,12.4,98.9,13.3z"/>
	</g>

<g>
	<g>
		<polygon class="blokje" fill="none" stroke="#E2007A" stroke-width="2.3416" stroke-miterlimit="10" points="188,92.2 196.7,97.2 205.6,92.1 
			205.5,82.8 196.7,77.7 188,82.8 		"/>
		<polyline class="blokje" fill="none" stroke="#E2007A" stroke-width="2.3416" stroke-miterlimit="10" points="204.9,83.2 196.7,87.9 188.1,83 		
			"/>
		<line class="blokje" fill="none" stroke="#E2007A" stroke-width="2.3416" stroke-miterlimit="10" x1="196.7" y1="88.2" x2="196.7" y2="96.8"/>
	</g>
	<g>
		<polyline class="blokje" fill="none" stroke="#E2007A" stroke-width="2.3416" stroke-miterlimit="10" points="208.5,94.2 208.5,98.9 203.8,98.9 
					"/>
		<polyline class="blokje" fill="none" stroke="#E2007A" stroke-width="2.3416" stroke-miterlimit="10" points="189.6,98.9 185,98.9 185,94.2 		"/>
		<polyline class="blokje" fill="none" stroke="#E2007A" stroke-width="2.3416" stroke-miterlimit="10" points="185,80 185,75.4 189.6,75.4 		"/>
		<polyline class="blokje" fill="none" stroke="#E2007A" stroke-width="2.3416" stroke-miterlimit="10" points="203.8,75.4 208.5,75.4 208.5,80 		
			"/>
	</g>
</g>
</svg>
