{
  "accessors": [
    {
      "bufferView": 2,
      "componentType": 5126,
      "count": 76,
      "max": [
        4.5,
        0.5,
        4.5
      ],
      "min": [
        -4.5,
        -33.5,
        -4.5
      ],
      "type": "VEC3"
    },
    {
      "bufferView": 2,
      "byteOffset": 912,
      "componentType": 5126,
      "count": 76,
      "max": [
        1.0,
        1.0,
        1.0
      ],
      "min": [
        -1.0,
        -1.0222204764431808e-05,
        -1.0
      ],
      "type": "VEC3"
    },
    {
      "bufferView": 1,
      "componentType": 5126,
      "count": 76,
      "max": [
        0.9999086260795593,
        0.8371475338935852
      ],
      "min": [
        9.148384560830891e-05,
        9.148480603471398e-05
      ],
      "type": "VEC2"
    },
    {
      "bufferView": 1,
      "byteOffset": 608,
      "componentType": 5126,
      "count": 76,
      "max": [
        0.9999086260795593,
        0.8371475338935852
      ],
      "min": [
        9.148384560830891e-05,
        9.148480603471398e-05
      ],
      "type": "VEC2"
    },
    {
      "bufferView": 1,
      "byteOffset": 1216,
      "componentType": 5126,
      "count": 76,
      "max": [
        0.9999086260795593,
        0.8371475338935852
      ],
      "min": [
        9.148384560830891e-05,
        9.148480603471398e-05
      ],
      "type": "VEC2"
    },
    {
      "bufferView": 1,
      "byteOffset": 1824,
      "componentType": 5126,
      "count": 76,
      "max": [
        0.9999086260795593,
        0.8371475338935852
      ],
      "min": [
        9.148384560830891e-05,
        9.148480603471398e-05
      ],
      "type": "VEC2"
    },
    {
      "bufferView": 0,
      "componentType": 5125,
      "count": 198,
      "type": "SCALAR"
    },
    {
      "bufferView": 2,
      "byteOffset": 1824,
      "componentType": 5126,
      "count": 19120,
      "max": [
        4.0,
        6.5,
        3.499999761581421
      ],
      "min": [
        -4.0,
        0.47687721252441406,
        -4.0
      ],
      "type": "VEC3"
    },
    {
      "bufferView": 2,
      "byteOffset": 231264,
      "componentType": 5126,
      "count": 19120,
      "max": [
        1.0,
        1.0,
        1.0
      ],
      "min": [
        -1.0,
        -1.0,
        -1.0
      ],
      "type": "VEC3"
    },
    {
      "bufferView": 1,
      "byteOffset": 2432,
      "componentType": 5126,
      "count": 19120,
      "max": [
        1.0,
        0.9982980489730835
      ],
      "min": [
        0.0,
        0.0
      ],
      "type": "VEC2"
    },
    {
      "bufferView": 1,
      "byteOffset": 155392,
      "componentType": 5126,
      "count": 19120,
      "max": [
        3.758124828338623,
        3.863598585128784
      ],
      "min": [
        -2.849905014038086,
        -3.0492703914642334
      ],
      "type": "VEC2"
    },
    {
      "bufferView": 1,
      "byteOffset": 308352,
      "componentType": 5126,
      "count": 19120,
      "max": [
        3.758124828338623,
        3.863598585128784
      ],
      "min": [
        -2.849905014038086,
        -3.0492703914642334
      ],
      "type": "VEC2"
    },
    {
      "bufferView": 1,
      "byteOffset": 461312,
      "componentType": 5126,
      "count": 19120,
      "max": [
        3.758124828338623,
        3.863598585128784
      ],
      "min": [
        -2.849905014038086,
        -3.0492703914642334
      ],
      "type": "VEC2"
    },
    {
      "bufferView": 0,
      "byteOffset": 792,
      "componentType": 5125,
      "count": 58392,
      "type": "SCALAR"
    }
  ],
  "asset": {
    "extras": {
      "author": "jt (https://sketchfab.com/juliantriveri)",
      "license": "CC-BY-4.0 (http://creativecommons.org/licenses/by/4.0/)",
      "source": "https://sketchfab.com/3d-models/baking-shading-test-8c6de08c5dd8447f8647d73d3bd4a908",
      "title": "baking & shading test"
    },
    "generator": "Sketchfab-12.75.0",
    "version": "2.0"
  },
  "bufferViews": [
    {
      "buffer": 0,
      "byteLength": 234360,
      "name": "floatBufferViews",
      "target": 34963
    },
    {
      "buffer": 0,
      "byteLength": 614272,
      "byteOffset": 234360,
      "byteStride": 8,
      "name": "floatBufferViews",
      "target": 34962
    },
    {
      "buffer": 0,
      "byteLength": 460704,
      "byteOffset": 848632,
      "byteStride": 12,
      "name": "floatBufferViews",
      "target": 34962
    }
  ],
  "buffers": [
    {
      "byteLength": 1309336,
      "uri": "scene.bin"
    }
  ],
  "images": [
    {
      "uri": "textures/marble_baseColor.png"
    },
    {
      "uri": "textures/wood_baseColor.png"
    }
  ],
  "materials": [
    {
      "doubleSided": true,
      "emissiveFactor": [
        1.0,
        1.0,
        1.0
      ],
      "emissiveTexture": {
        "index": 0,
        "texCoord": 1
      },
      "name": "marble",
      "pbrMetallicRoughness": {
        "baseColorTexture": {
          "index": 0
        },
        "metallicFactor": 0.0,
        "roughnessFactor": 0.0
      }
    },
    {
      "doubleSided": true,
      "emissiveFactor": [
        1.0,
        1.0,
        1.0
      ],
      "emissiveTexture": {
        "index": 1
      },
      "name": "wood",
      "pbrMetallicRoughness": {
        "baseColorTexture": {
          "index": 1
        },
        "metallicFactor": 0.0
      }
    }
  ],
  "meshes": [
    {
      "name": "platform.001_marble_0",
      "primitives": [
        {
          "attributes": {
            "NORMAL": 1,
            "POSITION": 0,
            "TEXCOORD_0": 2,
            "TEXCOORD_1": 3,
            "TEXCOORD_2": 4,
            "TEXCOORD_3": 5
          },
          "indices": 6,
          "material": 0,
          "mode": 4
        }
      ]
    },
    {
      "name": "armature.001_wood_0",
      "primitives": [
        {
          "attributes": {
            "NORMAL": 8,
            "POSITION": 7,
            "TEXCOORD_0": 9,
            "TEXCOORD_1": 10,
            "TEXCOORD_2": 11,
            "TEXCOORD_3": 12
          },
          "indices": 13,
          "material": 1,
          "mode": 4
        }
      ]
    }
  ],
  "nodes": [
    {
      "children": [
        1
      ],
      "matrix": [
        83.65321350097656,
        0.0,
        0.0,
        0.0,
        0.0,
        1.8574744742533636e-14,
        -83.65321350097656,
        0.0,
        0.0,
        83.65321350097656,
        1.8574744742533636e-14,
        0.0,
        0.0,
        0.0,
        0.0,
        1.0
      ],
      "name": "Sketchfab_model"
    },
    {
      "children": [
        2
      ],
      "matrix": [
        0.009999999776482582,
        0.0,
        0.0,
        0.0,
        0.0,
        0.0,
        0.009999999776482582,
        0.0,
        0.0,
        -0.009999999776482582,
        0.0,
        0.0,
        0.0,
        0.0,
        0.0,
        1.0
      ],
      "name": "7d16f3adaf1f4fc895cff14d6dbf4085.fbx"
    },
    {
      "children": [
        3,
        5
      ],
      "name": "RootNode"
    },
    {
      "children": [
        4
      ],
      "name": "platform.001"
    },
    {
      "mesh": 0,
      "name": "platform.001_marble_0"
    },
    {
      "children": [
        6
      ],
      "name": "armature.001"
    },
    {
      "mesh": 1,
      "name": "armature.001_wood_0"
    }
  ],
  "samplers": [
    {
      "magFilter": 9729,
      "minFilter": 9987,
      "wrapS": 10497,
      "wrapT": 10497
    }
  ],
  "scene": 0,
  "scenes": [
    {
      "name": "Sketchfab_Scene",
      "nodes": [
        0
      ]
    }
  ],
  "textures": [
    {
      "sampler": 0,
      "source": 0
    },
    {
      "sampler": 0,
      "source": 1
    }
  ]
}
